<?xml version="1.0" encoding="UTF-8"?>
<svg xmlns="http://www.w3.org/2000/svg" xmlns:xlink="http://www.w3.org/1999/xlink" width="20pt" height="20pt" viewBox="0 0 20 20" version="1.1">
<defs>
<radialGradient id="radial0" gradientUnits="userSpaceOnUse" cx="44.8288" cy="63.1717" fx="44.8288" fy="63.1717" r="52.3812" gradientTransform="matrix(0.141016,0.0792656,-0.0859062,0.139328,5.842687,-2.484109)">
<stop offset="0.0173" style="stop-color:rgb(80%,89.803922%,69.019608%);stop-opacity:1;"/>
<stop offset="0.1544" style="stop-color:rgb(77.647059%,88.627451%,65.490196%);stop-opacity:1;"/>
<stop offset="0.3766" style="stop-color:rgb(71.764706%,85.490196%,56.078431%);stop-opacity:1;"/>
<stop offset="0.4821" style="stop-color:rgb(68.235294%,83.529412%,50.588235%);stop-opacity:1;"/>
<stop offset="0.6056" style="stop-color:rgb(65.490196%,81.568627%,47.843137%);stop-opacity:1;"/>
<stop offset="0.8805" style="stop-color:rgb(43.137255%,72.941176%,13.333333%);stop-opacity:1;"/>
<stop offset="1" style="stop-color:rgb(48.627451%,70.196078%,25.882353%);stop-opacity:1;"/>
</radialGradient>
<filter id="alpha" filterUnits="objectBoundingBox" x="0%" y="0%" width="100%" height="100%">
  <feColorMatrix type="matrix" in="SourceGraphic" values="0 0 0 0 1 0 0 0 0 1 0 0 0 0 1 0 0 0 1 0"/>
</filter>
<mask id="mask0">
  <g filter="url(#alpha)">
<rect x="0" y="0" width="20" height="20" style="fill:rgb(0%,0%,0%);fill-opacity:0.2;stroke:none;"/>
  </g>
</mask>
<clipPath id="clip1">
  <rect width="20" height="20"/>
</clipPath>
<g id="surface6" clip-path="url(#clip1)">
<path style=" stroke:none;fill-rule:nonzero;fill:rgb(25.882353%,25.882353%,25.882353%);fill-opacity:1;" d="M 12.269531 5.203125 C 13.507812 5.203125 14.230469 5.742188 14.234375 5.746094 C 14.242188 5.753906 14.253906 5.761719 14.261719 5.765625 C 15.617188 6.675781 16.414062 7.855469 16.625 9.277344 C 16.832031 10.664062 16.507812 12.265625 15.65625 14.046875 C 14.882812 15.671875 13.953125 16.828125 13.851562 16.953125 C 13.050781 17.933594 12.078125 18.542969 11.636719 18.542969 L 11.621094 18.542969 C 11.570312 18.539062 11.527344 18.539062 11.484375 18.539062 C 10.996094 18.539062 10.746094 18.664062 10.542969 18.765625 C 10.472656 18.804688 10.414062 18.832031 10.34375 18.859375 C 10.34375 18.859375 10.3125 18.867188 10.242188 18.867188 C 9.941406 18.867188 9.425781 18.738281 9.050781 18.644531 C 8.960938 18.621094 8.875 18.601562 8.792969 18.582031 C 8.683594 18.554688 8.574219 18.542969 8.460938 18.542969 C 8.28125 18.542969 8.117188 18.578125 7.976562 18.609375 C 7.839844 18.636719 7.710938 18.664062 7.566406 18.664062 C 7.40625 18.664062 7.238281 18.632812 7.046875 18.570312 C 6.304688 18.320312 3.367188 16.503906 2.546875 12.203125 C 2.191406 10.351562 2.414062 8.765625 3.207031 7.488281 C 3.855469 6.4375 4.765625 5.832031 5.398438 5.617188 C 5.875 5.453125 6.308594 5.375 6.722656 5.375 C 7.191406 5.375 7.570312 5.472656 7.976562 5.574219 C 8.285156 5.65625 8.605469 5.738281 8.953125 5.765625 C 9.066406 5.773438 9.179688 5.777344 9.292969 5.777344 C 9.925781 5.777344 10.367188 5.628906 10.796875 5.484375 C 11.183594 5.355469 11.550781 5.234375 12.085938 5.210938 C 12.148438 5.203125 12.210938 5.203125 12.269531 5.203125 M 12.269531 4.734375 C 12.203125 4.734375 12.132812 4.734375 12.0625 4.738281 C 10.847656 4.789062 10.390625 5.308594 9.289062 5.308594 C 9.195312 5.308594 9.09375 5.304688 8.984375 5.296875 C 8.265625 5.238281 7.640625 4.902344 6.722656 4.902344 C 6.304688 4.902344 5.824219 4.972656 5.246094 5.171875 C 3.808594 5.664062 1.230469 7.824219 2.082031 12.289062 C 2.9375 16.753906 5.960938 18.695312 6.898438 19.011719 C 7.164062 19.101562 7.378906 19.132812 7.5625 19.132812 C 7.933594 19.132812 8.179688 19.011719 8.460938 19.011719 C 8.53125 19.011719 8.605469 19.019531 8.683594 19.039062 C 9.128906 19.144531 9.808594 19.335938 10.242188 19.335938 C 10.34375 19.335938 10.429688 19.324219 10.5 19.300781 C 10.835938 19.175781 10.953125 19.007812 11.484375 19.007812 C 11.519531 19.007812 11.558594 19.007812 11.601562 19.011719 C 11.609375 19.011719 11.625 19.011719 11.632812 19.011719 C 12.273438 19.011719 13.347656 18.308594 14.210938 17.25 C 15.09375 16.171875 20.171875 9.160156 14.519531 5.378906 C 14.523438 5.378906 13.703125 4.734375 12.269531 4.734375 Z M 12.269531 4.734375 "/>
</g>
<linearGradient id="linear0" gradientUnits="userSpaceOnUse" x1="46.1071" y1="44.6537" x2="80.3145" y2="44.6537" gradientTransform="matrix(0.15625,0,0,0.15625,0,0)">
<stop offset="0.0039685" style="stop-color:rgb(61.176471%,80%,39.607843%);stop-opacity:0;"/>
<stop offset="0.5339" style="stop-color:rgb(20%,41.176471%,11.764706%);stop-opacity:1;"/>
<stop offset="1" style="stop-color:rgb(61.176471%,80%,39.607843%);stop-opacity:0;"/>
</linearGradient>
<linearGradient id="linear1" gradientUnits="userSpaceOnUse" x1="67.9826" y1="18.755" x2="114.5808" y2="18.755" gradientTransform="matrix(0.155891,0.0105156,-0.0105156,0.155891,0.243891,-0.900203)">
<stop offset="0.1235" style="stop-color:rgb(40.784314%,62.352941%,21.960784%);stop-opacity:1;"/>
<stop offset="0.3217" style="stop-color:rgb(45.098039%,65.490196%,26.27451%);stop-opacity:1;"/>
<stop offset="0.6685" style="stop-color:rgb(55.686275%,74.117647%,37.647059%);stop-opacity:1;"/>
<stop offset="0.9927" style="stop-color:rgb(68.235294%,83.529412%,50.588235%);stop-opacity:1;"/>
</linearGradient>
<mask id="mask1">
  <g filter="url(#alpha)">
<rect x="0" y="0" width="20" height="20" style="fill:rgb(0%,0%,0%);fill-opacity:0.2;stroke:none;"/>
  </g>
</mask>
<clipPath id="clip2">
  <rect width="20" height="20"/>
</clipPath>
<g id="surface9" clip-path="url(#clip2)">
<path style=" stroke:none;fill-rule:nonzero;fill:rgb(25.882353%,25.882353%,25.882353%);fill-opacity:1;" d="M 14.496094 1.230469 C 15.261719 1.230469 15.851562 1.4375 15.855469 1.441406 C 15.960938 1.480469 16.070312 1.523438 16.183594 1.574219 C 16.523438 1.71875 16.878906 1.867188 17.257812 1.867188 C 17.277344 1.867188 17.296875 1.867188 17.320312 1.867188 C 16.972656 2.820312 16.234375 4.273438 14.921875 4.613281 C 14.609375 4.691406 14.296875 4.734375 13.996094 4.734375 C 13.101562 4.734375 12.40625 4.386719 11.84375 4.109375 C 11.566406 3.976562 11.328125 3.855469 11.101562 3.796875 C 11.367188 2.929688 11.808594 2.398438 12.148438 2.097656 C 12.46875 1.820312 12.996094 1.457031 13.710938 1.308594 C 13.960938 1.257812 14.226562 1.230469 14.496094 1.230469 M 18.246094 1.523438 L 18.246094 1.523438 M 14.496094 0.761719 C 14.21875 0.761719 13.921875 0.785156 13.613281 0.851562 C 12.730469 1.035156 12.117188 1.503906 11.839844 1.746094 C 10.925781 2.546875 10.648438 3.625 10.558594 4.023438 C 10.582031 4.046875 10.671875 4.1875 10.683594 4.226562 C 10.691406 4.226562 10.699219 4.226562 10.707031 4.222656 C 10.730469 4.21875 10.757812 4.21875 10.78125 4.21875 C 11.367188 4.21875 12.386719 5.203125 13.992188 5.203125 C 14.316406 5.203125 14.664062 5.164062 15.035156 5.066406 C 17.335938 4.476562 18.035156 1.109375 18.035156 1.109375 L 18.054688 1.097656 C 18.046875 1.097656 17.679688 1.289062 17.578125 1.332031 C 17.476562 1.378906 17.367188 1.398438 17.253906 1.398438 C 16.863281 1.398438 16.441406 1.15625 16.015625 1 C 16.015625 1 15.363281 0.761719 14.496094 0.761719 Z M 14.496094 0.761719 "/>
</g>
<linearGradient id="linear2" gradientUnits="userSpaceOnUse" x1="51.9841" y1="13.1652" x2="63.0451" y2="46.6834" gradientTransform="matrix(0.15625,0,0,0.15625,0,0)">
<stop offset="0.0000155627" style="stop-color:rgb(54.901961%,38.431373%,22.352941%);stop-opacity:1;"/>
<stop offset="0.992" style="stop-color:rgb(37.647059%,21.960784%,7.45098%);stop-opacity:1;"/>
</linearGradient>
<mask id="mask2">
  <g filter="url(#alpha)">
<rect x="0" y="0" width="20" height="20" style="fill:rgb(0%,0%,0%);fill-opacity:0.2;stroke:none;"/>
  </g>
</mask>
<clipPath id="clip3">
  <rect width="20" height="20"/>
</clipPath>
<g id="surface12" clip-path="url(#clip3)">
<path style=" stroke:none;fill-rule:nonzero;fill:rgb(25.882353%,25.882353%,25.882353%);fill-opacity:1;" d="M 8.351562 2.082031 C 8.367188 2.082031 8.382812 2.085938 8.394531 2.085938 C 8.414062 2.105469 8.460938 2.15625 8.535156 2.289062 C 8.816406 2.769531 9.15625 3.757812 9.414062 4.667969 C 9.042969 3.765625 8.632812 3.25 7.859375 2.339844 C 8.023438 2.199219 8.214844 2.082031 8.351562 2.082031 M 8.351562 1.753906 C 7.953125 1.753906 7.539062 2.179688 7.4375 2.289062 C 7.421875 2.308594 7.410156 2.320312 7.410156 2.320312 C 8.449219 3.535156 8.851562 4.015625 9.289062 5.257812 C 9.738281 6.539062 9.835938 7.085938 9.808594 7.285156 C 9.796875 7.367188 9.851562 7.390625 9.914062 7.390625 C 10.011719 7.390625 10.140625 7.339844 10.140625 7.339844 C 10.140625 7.339844 10.296875 7.320312 10.089844 6.085938 C 9.9375 5.164062 9.316406 2.972656 8.820312 2.125 C 8.714844 1.9375 8.613281 1.816406 8.523438 1.785156 C 8.46875 1.765625 8.410156 1.753906 8.351562 1.753906 Z M 8.351562 1.753906 "/>
</g>
</defs>
<g id="surface1">
<path style=" stroke:none;fill-rule:nonzero;fill:url(#radial0);" d="M 5.25 5.167969 C 3.808594 5.660156 1.234375 7.820312 2.085938 12.285156 C 2.9375 16.75 5.960938 18.695312 6.898438 19.007812 C 7.835938 19.324219 8.136719 18.90625 8.6875 19.035156 C 9.234375 19.167969 10.144531 19.429688 10.5 19.296875 C 10.859375 19.167969 10.96875 18.984375 11.601562 19.007812 C 12.234375 19.035156 13.335938 18.328125 14.214844 17.25 C 15.09375 16.171875 20.171875 9.160156 14.523438 5.378906 C 14.523438 5.378906 13.621094 4.671875 12.0625 4.738281 C 10.742188 4.796875 10.316406 5.402344 8.984375 5.296875 C 7.9375 5.210938 7.09375 4.539062 5.25 5.167969 Z M 5.25 5.167969 "/>
<use xlink:href="#surface6" mask="url(#mask0)"/>
<path style=" stroke:none;fill-rule:nonzero;fill:url(#linear0);" d="M 7.4375 7.003906 C 7.300781 6.910156 7.207031 6.726562 7.308594 6.621094 C 7.410156 6.519531 8.007812 6.574219 8.472656 6.667969 C 8.589844 6.695312 9.417969 6.914062 9.894531 6.898438 C 10.210938 6.886719 10.59375 6.800781 11.164062 6.675781 C 11.769531 6.539062 11.757812 6.46875 12.03125 6.445312 C 12.304688 6.421875 12.570312 6.421875 12.605469 6.558594 C 12.636719 6.671875 12.480469 6.839844 12.320312 6.9375 C 11.679688 7.320312 10.789062 7.539062 9.898438 7.519531 C 8.855469 7.496094 8.003906 7.386719 7.4375 7.003906 Z M 7.4375 7.003906 "/>
<path style=" stroke:none;fill-rule:nonzero;fill:url(#linear1);" d="M 17.578125 1.332031 C 17.105469 1.542969 16.5625 1.203125 16.015625 1 C 16.015625 1 14.882812 0.585938 13.613281 0.851562 C 12.730469 1.039062 12.117188 1.507812 11.839844 1.75 C 10.925781 2.546875 10.648438 3.625 10.558594 4.023438 C 10.582031 4.046875 10.671875 4.191406 10.683594 4.226562 C 10.691406 4.226562 10.699219 4.226562 10.707031 4.226562 C 11.390625 4.113281 12.738281 5.660156 15.035156 5.066406 C 17.335938 4.476562 18.035156 1.109375 18.035156 1.109375 L 18.054688 1.097656 C 18.050781 1.097656 17.683594 1.289062 17.578125 1.332031 Z M 17.578125 1.332031 "/>
<use xlink:href="#surface9" mask="url(#mask1)"/>
<path style=" stroke:none;fill-rule:nonzero;fill:rgb(33.333333%,54.509804%,18.431373%);fill-opacity:1;" d="M 9.535156 6.117188 C 9.535156 6.117188 9.539062 6.109375 9.542969 6.09375 C 9.546875 6.078125 9.550781 6.058594 9.554688 6.03125 C 9.570312 5.960938 9.589844 5.84375 9.625 5.699219 C 9.691406 5.410156 9.804688 4.984375 10.066406 4.523438 C 10.195312 4.292969 10.371094 4.054688 10.59375 3.84375 C 10.703125 3.734375 10.828125 3.636719 10.960938 3.546875 C 11.03125 3.5 11.09375 3.464844 11.171875 3.417969 C 11.242188 3.386719 11.304688 3.351562 11.386719 3.316406 C 11.6875 3.179688 12.019531 3.09375 12.359375 3.0625 C 12.703125 3.035156 13.039062 3.054688 13.367188 3.082031 C 13.691406 3.105469 14.007812 3.132812 14.320312 3.113281 C 14.625 3.09375 14.925781 3.03125 15.203125 2.929688 C 15.351562 2.882812 15.484375 2.824219 15.617188 2.769531 C 15.746094 2.707031 15.875 2.648438 16 2.585938 C 16.246094 2.457031 16.476562 2.328125 16.679688 2.195312 C 17.09375 1.9375 17.421875 1.695312 17.640625 1.515625 C 17.75 1.425781 17.835938 1.351562 17.886719 1.296875 C 17.941406 1.242188 17.964844 1.210938 17.964844 1.210938 L 17.984375 1.226562 C 17.984375 1.226562 17.960938 1.257812 17.910156 1.316406 C 17.859375 1.375 17.78125 1.457031 17.675781 1.554688 C 17.46875 1.753906 17.15625 2.019531 16.753906 2.304688 C 16.554688 2.449219 16.332031 2.597656 16.085938 2.742188 C 15.964844 2.8125 15.835938 2.882812 15.703125 2.953125 C 15.566406 3.019531 15.429688 3.089844 15.289062 3.148438 C 15 3.277344 14.671875 3.359375 14.339844 3.390625 C 14.007812 3.429688 13.671875 3.414062 13.347656 3.40625 C 13.023438 3.390625 12.703125 3.390625 12.40625 3.4375 C 12.109375 3.484375 11.828125 3.582031 11.578125 3.710938 C 11.519531 3.738281 11.453125 3.78125 11.386719 3.816406 C 11.335938 3.851562 11.273438 3.886719 11.222656 3.925781 C 11.117188 4.003906 11.015625 4.089844 10.929688 4.179688 C 10.753906 4.363281 10.617188 4.566406 10.515625 4.765625 C 10.414062 4.964844 10.339844 5.164062 10.289062 5.339844 C 10.234375 5.519531 10.203125 5.679688 10.175781 5.8125 C 10.152344 5.945312 10.136719 6.054688 10.125 6.132812 C 10.121094 6.171875 10.117188 6.203125 10.105469 6.242188 C 10.101562 6.265625 10.097656 6.277344 10.097656 6.277344 Z M 9.535156 6.117188 "/>
<path style=" stroke:none;fill-rule:nonzero;fill:rgb(25.882353%,12.941176%,4.313725%);fill-opacity:1;" d="M 8.820312 2.121094 C 8.710938 1.9375 8.613281 1.816406 8.523438 1.78125 C 8.078125 1.625 7.554688 2.164062 7.433594 2.289062 C 7.875 2.640625 8.398438 2.394531 8.820312 2.121094 Z M 8.820312 2.121094 "/>
<path style=" stroke:none;fill-rule:nonzero;fill:url(#linear2);" d="M 10.089844 6.085938 C 9.9375 5.164062 9.3125 2.972656 8.820312 2.125 C 8.398438 2.394531 7.875 2.640625 7.433594 2.292969 C 7.417969 2.308594 7.410156 2.320312 7.410156 2.320312 C 8.445312 3.539062 8.851562 4.015625 9.289062 5.261719 C 9.738281 6.539062 9.835938 7.085938 9.808594 7.285156 C 9.78125 7.492188 10.136719 7.339844 10.136719 7.339844 C 10.136719 7.339844 10.296875 7.320312 10.089844 6.085938 Z M 10.089844 6.085938 "/>
<use xlink:href="#surface12" mask="url(#mask2)"/>
</g>
</svg>
